# xmcd
#
# Track frame offsets: 
#        150
#        19332
#        38653
#        56859
#        77963
#        96401
#        117737
#        140828
#        159592
#        179117
#        201252
#        222217
#        240237
#
# Disc length: 3474 seconds
#
# Revision: 1
# Processed by: cddbd v1.5.2PL0 Copyright (c) Steve Scherf et al.
# Submitted via: ExactAudioCopy v0.99pb5
#
DISCID=c70d900d
DTITLE=빅마마 - For The People
DYEAR=2006
DGENRE=Soul
TTITLE0=언니
TTITLE1=이별, 그 후
TTITLE2=Never Mind
TTITLE3=축복
TTITLE4=사랑, 날개를 달다
TTITLE5=모두 용서한다 (짓밟힌 꽃송이를 위해)
TTITLE6=Calling
TTITLE7=기분 좋은 날
TTITLE8=바다로 간 어느 날
TTITLE9=연(捐)
TTITLE10=사랑을 외치다
TTITLE11=Get Out
TTITLE12=Thanks To…
EXTD=
EXTT0=
EXTT1=
EXTT2=
EXTT3=
EXTT4=
EXTT5=
EXTT6=
EXTT7=
EXTT8=
EXTT9=
EXTT10=
EXTT11=
EXTT12=
PLAYORDER=
